<svg xmlns="http://www.w3.org/2000/svg" xmlns:xlink="http://www.w3.org/1999/xlink" width="1024" zoomAndPan="magnify" viewBox="0 0 768 767.999994" height="1024" preserveAspectRatio="xMidYMid meet" version="1.0"><defs><clipPath id="21502ac52e"><path d="M 122.203125 162.886719 L 645.703125 162.886719 L 645.703125 605.386719 L 122.203125 605.386719 Z M 122.203125 162.886719 " clip-rule="nonzero"/></clipPath></defs><g clip-path="url(#21502ac52e)"><path fill="#aeae83" d="M 177.972656 162.996094 L 589.933594 162.996094 C 620.691406 162.996094 645.703125 188.03125 645.703125 218.8125 L 645.703125 442.078125 C 645.703125 472.949219 620.691406 497.894531 589.933594 497.894531 L 432.960938 497.894531 L 432.960938 605.277344 L 360.839844 497.894531 L 177.972656 497.894531 M 177.976562 497.894531 C 147.214844 497.894531 122.203125 472.949219 122.203125 442.078125 L 122.203125 218.8125 C 122.203125 188.03125 147.214844 162.996094 177.976562 162.996094 " fill-opacity="1" fill-rule="nonzero"/></g><path fill="#d9d6c1" d="M 499.867188 302.757812 C 481.925781 302.757812 467.429688 317.261719 467.429688 335.21875 C 467.429688 353.175781 481.925781 367.683594 499.867188 367.683594 C 517.808594 367.683594 532.304688 353.175781 532.304688 335.21875 C 532.304688 317.261719 517.722656 302.757812 499.867188 302.757812 Z M 388.148438 302.757812 C 370.207031 302.757812 355.710938 317.261719 355.710938 335.21875 C 355.710938 353.175781 370.207031 367.683594 388.148438 367.683594 C 406.089844 367.683594 420.585938 353.175781 420.585938 335.21875 C 420.585938 317.261719 406.089844 302.757812 388.148438 302.757812 Z M 308.957031 335.21875 C 308.957031 353.175781 294.460938 367.683594 276.519531 367.683594 C 258.578125 367.683594 244.082031 353.175781 244.082031 335.21875 C 244.082031 317.261719 258.578125 302.757812 276.519531 302.757812 C 294.460938 302.757812 308.957031 317.351562 308.957031 335.21875 " fill-opacity="1" fill-rule="nonzero"/><path fill="#347571" d="M 490.234375 292.320312 C 473.085938 292.320312 459.121094 306.292969 459.121094 323.457031 C 459.121094 340.617188 473.085938 354.59375 490.234375 354.59375 C 507.378906 354.59375 521.34375 340.617188 521.34375 323.457031 C 521.34375 306.292969 507.46875 292.320312 490.234375 292.320312 Z M 490.234375 357.335938 C 471.585938 357.335938 456.46875 342.207031 456.46875 323.542969 C 456.46875 304.878906 471.585938 289.753906 490.234375 289.753906 C 508.882812 289.753906 523.996094 304.878906 523.996094 323.542969 C 523.996094 342.207031 508.882812 357.335938 490.234375 357.335938 Z M 378.605469 292.320312 C 361.457031 292.320312 347.492188 306.292969 347.492188 323.457031 C 347.492188 340.617188 361.457031 354.59375 378.605469 354.59375 C 395.75 354.59375 409.714844 340.617188 409.714844 323.457031 C 409.714844 306.292969 395.75 292.320312 378.605469 292.320312 Z M 378.605469 357.335938 C 359.953125 357.335938 344.839844 342.207031 344.839844 323.542969 C 344.839844 304.878906 359.953125 289.753906 378.605469 289.753906 C 397.253906 289.753906 412.367188 304.878906 412.367188 323.542969 C 412.367188 342.207031 397.253906 357.335938 378.605469 357.335938 Z M 266.886719 292.320312 C 249.738281 292.320312 235.773438 306.292969 235.773438 323.457031 C 235.773438 340.617188 249.738281 354.59375 266.886719 354.59375 C 284.03125 354.59375 297.996094 340.617188 297.996094 323.457031 C 297.996094 306.292969 284.03125 292.320312 266.886719 292.320312 Z M 266.886719 357.335938 C 248.238281 357.335938 233.125 342.207031 233.125 323.542969 C 233.125 304.878906 248.238281 289.753906 266.886719 289.753906 C 285.535156 289.753906 300.648438 304.878906 300.648438 323.542969 C 300.648438 342.207031 285.535156 357.335938 266.886719 357.335938 " fill-opacity="1" fill-rule="nonzero"/></svg>