<svg xmlns="http://www.w3.org/2000/svg" xmlns:xlink="http://www.w3.org/1999/xlink" width="1024" zoomAndPan="magnify" viewBox="0 0 768 767.999994" height="1024" preserveAspectRatio="xMidYMid meet" version="1.0"><path fill="#aeae83" d="M 688.707031 456.972656 C 685.347656 464.644531 675.3125 470.960938 669.144531 476 C 640.171875 499.664062 609.324219 521.214844 578.515625 542.410156 C 565.765625 551.191406 552.988281 560.042969 539.828125 568.195312 C 534.207031 571.675781 530.230469 574.195312 523.632812 574.359375 C 495.488281 575.074219 464.199219 564.042969 437.109375 557.726562 C 402.984375 549.792969 368.980469 541.285156 335.035156 532.574219 C 329.6875 531.203125 322.789062 528.09375 316.882812 527.378906 C 317.019531 527.625 314.648438 528.269531 312.90625 529.667969 C 309.175781 532.640625 304.542969 534.902344 300.566406 537.421875 C 270.402344 556.207031 240.160156 574.796875 209.515625 592.734375 C 195.515625 600.832031 181.574219 609.050781 167.148438 616.269531 C 162.613281 618.558594 153.109375 625.027344 147.488281 623.273438 C 135.628906 619.558594 132.132812 585.253906 129.941406 575.9375 C 121.535156 540.382812 114.597656 504.457031 107.8125 468.5625 C 101.851562 437.023438 96.140625 405.433594 90.671875 373.792969 C 87.933594 357.902344 85.339844 350.105469 96.910156 337.390625 C 118.890625 313.195312 147.476562 293.792969 173.855469 274.75 C 201.671875 254.691406 230.066406 234.441406 260.050781 217.769531 C 280.753906 206.261719 297.8125 215.878906 318.761719 224.617188 C 337.667969 232.550781 356.3125 241.167969 374.753906 250.15625 L 414.265625 268.105469 C 417.753906 269.6875 421.316406 271.074219 424.957031 272.253906 C 428.597656 273.4375 432.292969 274.410156 436.046875 275.175781 C 439.796875 275.941406 443.578125 276.496094 447.394531 276.835938 C 451.207031 277.175781 455.027344 277.296875 458.855469 277.207031 C 462.683594 277.117188 466.492188 276.808594 470.285156 276.289062 C 474.078125 275.769531 477.832031 275.039062 481.542969 274.09375 C 485.253906 273.152344 488.898438 272.003906 492.480469 270.648438 C 496.058594 269.292969 499.554688 267.742188 502.960938 265.996094 L 547.09375 243.429688 C 561.007812 235.484375 575.019531 227.703125 589.253906 220.332031 C 601.425781 214.015625 615.152344 205.507812 628.792969 202.78125 C 645.148438 199.519531 647.261719 221.960938 650.511719 233.757812 C 668.429688 299.410156 682.46875 368.667969 688.980469 436.421875 C 689.585938 442.585938 691.3125 450.929688 688.707031 456.972656 Z M 688.707031 456.972656 " fill-opacity="1" fill-rule="nonzero"/><path fill="#d9d6c1" d="M 658.558594 449.328125 C 655.707031 455.863281 647.164062 461.230469 641.902344 465.519531 C 617.222656 485.675781 590.980469 504.019531 564.753906 522.0625 C 552.714844 530.367188 540.648438 538.722656 528.117188 546.285156 C 525.003906 548.175781 521.625 549.171875 517.984375 549.273438 C 494.007812 549.847656 442.070312 534.683594 419.023438 529.3125 C 389.972656 522.558594 361.015625 515.324219 332.128906 507.898438 C 328.535156 506.964844 324.121094 505.15625 319.964844 504.101562 C 318.820312 503.792969 317.664062 503.75 316.5 503.976562 C 315.332031 504.203125 314.277344 504.675781 313.332031 505.390625 C 309.941406 507.796875 306.421875 509.996094 302.773438 511.992188 C 277.109375 527.984375 251.347656 543.820312 225.253906 559.082031 C 213.394531 566.015625 201.507812 572.988281 189.25 579.167969 C 185.386719 581.128906 177.296875 586.636719 172.511719 585.144531 C 162.40625 581.992188 159.429688 552.765625 157.566406 544.847656 C 150.410156 514.570312 144.515625 483.988281 138.730469 453.421875 C 133.609375 426.558594 128.730469 399.679688 124.085938 372.78125 C 121.753906 359.242188 119.546875 352.613281 129.390625 341.773438 C 148.105469 321.222656 172.441406 304.660156 194.898438 288.480469 C 218.59375 271.421875 242.722656 254.199219 268.277344 239.976562 C 285.910156 230.179688 300.429688 238.359375 318.265625 245.855469 C 334.363281 252.609375 350.238281 259.941406 365.9375 267.597656 L 399.570312 282.875 C 423.699219 293.835938 476.855469 298.972656 500.421875 286.875 L 538.042969 267.597656 L 545.144531 263.363281 C 556.992188 256.597656 561.816406 254.210938 573.9375 247.9375 C 584.316406 242.554688 596 235.320312 607.609375 233.003906 C 621.539062 230.265625 623.335938 249.265625 626.09375 259.363281 C 641.351562 315.207031 653.308594 374.21875 658.859375 431.871094 C 659.3125 437.144531 660.78125 444.242188 658.558594 449.328125 Z M 658.558594 449.328125 " fill-opacity="1" fill-rule="nonzero"/><path fill="#fefaed" d="M 174.238281 588.84375 C 173.304688 588.84375 172.390625 588.710938 171.496094 588.445312 C 162.035156 585.484375 158.347656 568.675781 155.375 551.699219 C 154.933594 549.191406 154.550781 547.011719 154.234375 545.65625 C 147.066406 515.378906 141.222656 485.058594 135.355469 454.09375 C 130.105469 426.582031 125.183594 399.429688 120.714844 373.394531 L 120.164062 370.285156 C 118.054688 358.503906 116.667969 350.722656 126.855469 339.515625 C 143.746094 320.921875 164.929688 305.769531 185.414062 291.109375 L 192.886719 285.710938 C 213.863281 270.640625 239.953125 251.789062 266.578125 236.976562 C 283.9375 227.386719 298.714844 233.714844 314.359375 240.472656 L 319.554688 242.691406 C 334.390625 248.925781 349.980469 256.035156 367.199219 264.417969 L 367.324219 264.417969 L 400.941406 279.765625 C 425.441406 290.890625 477.308594 294.835938 498.804688 283.875 L 536.277344 264.695312 L 543.296875 260.582031 C 553.605469 254.691406 558.570312 252.128906 567.578125 247.472656 L 572.320312 244.894531 C 574.292969 243.867188 576.324219 242.773438 578.378906 241.664062 C 587.113281 236.949219 597.011719 231.621094 606.898438 229.632812 C 621.980469 226.632812 625.875 243.5 628.175781 253.582031 C 628.585938 255.351562 628.972656 257.019531 629.355469 258.460938 C 645.972656 319.25 657.035156 377.492188 662.261719 431.542969 C 662.34375 432.445312 662.453125 433.417969 662.574219 434.40625 C 663.191406 439.421875 663.945312 445.667969 661.738281 450.695312 C 659.121094 456.699219 652.746094 461.5625 647.617188 465.464844 C 646.371094 466.410156 645.175781 467.316406 644.121094 468.207031 C 619.441406 488.359375 593.394531 506.570312 566.738281 524.914062 L 565.230469 525.953125 C 553.824219 533.820312 542.019531 541.945312 529.929688 549.246094 C 526.296875 551.449219 522.355469 552.609375 518.109375 552.726562 C 498.914062 553.207031 463.101562 544.027344 436.957031 537.339844 C 429.636719 535.464844 423.246094 533.847656 418.285156 532.683594 C 392.480469 526.667969 364.8125 519.859375 331.304688 511.242188 C 329.496094 510.773438 327.589844 510.117188 325.574219 509.433594 C 323.558594 508.746094 321.242188 507.964844 319.171875 507.445312 C 318.539062 507.269531 317.898438 507.238281 317.253906 507.355469 C 316.605469 507.46875 316.015625 507.71875 315.484375 508.101562 C 313.109375 509.910156 310.609375 511.523438 307.984375 512.9375 C 306.832031 513.609375 305.695312 514.308594 304.597656 514.941406 C 283.347656 528.1875 255.308594 545.519531 226.996094 562.085938 L 226.460938 562.398438 C 214.917969 569.152344 202.976562 576.101562 190.816406 582.277344 C 190.128906 582.621094 189.304688 583.085938 188.386719 583.648438 C 184.316406 585.867188 178.953125 588.84375 174.238281 588.84375 Z M 284.910156 238.910156 C 282.277344 238.929688 279.695312 239.285156 277.160156 239.984375 C 274.625 240.679688 272.222656 241.691406 269.949219 243.019531 C 243.640625 257.582031 217.726562 276.257812 196.902344 291.261719 L 189.402344 296.671875 C 169.207031 311.113281 148.269531 326.058594 131.929688 344.105469 C 123.988281 352.84375 124.921875 357.886719 126.910156 369.039062 C 127.089844 370.054688 127.28125 371.109375 127.457031 372.203125 C 131.941406 398.234375 136.835938 425.351562 142.03125 452.820312 C 147.886719 483.714844 153.726562 513.9375 160.84375 544.082031 C 161.214844 545.644531 161.613281 547.902344 162.0625 550.519531 C 163.433594 558.5625 167.234375 579.949219 173.484375 581.894531 C 175.964844 582.691406 182.027344 579.265625 184.945312 577.621094 C 185.960938 577.046875 186.878906 576.523438 187.6875 576.140625 C 199.671875 570.097656 211.515625 563.179688 222.964844 556.46875 L 223.5 556.152344 C 251.742188 539.640625 279.710938 522.339844 300.9375 509.117188 C 302.101562 508.390625 303.320312 507.746094 304.542969 506.992188 C 306.855469 505.738281 309.070312 504.320312 311.179688 502.746094 L 311.289062 502.664062 C 311.964844 502.15625 312.691406 501.730469 313.464844 501.382812 C 314.238281 501.039062 315.039062 500.785156 315.871094 500.621094 C 316.699219 500.457031 317.539062 500.390625 318.386719 500.414062 C 319.234375 500.441406 320.066406 500.558594 320.886719 500.773438 C 323.230469 501.363281 325.574219 502.144531 327.835938 502.925781 C 329.726562 503.566406 331.511719 504.171875 333.074219 504.582031 C 366.457031 513.144531 394.085938 519.996094 419.804688 525.984375 C 424.890625 527.160156 431.253906 528.792969 438.617188 530.683594 C 464.378906 537.273438 499.628906 546.300781 517.902344 545.847656 C 520.9375 545.761719 523.753906 544.929688 526.347656 543.355469 C 538.261719 536.164062 549.972656 528.09375 561.3125 520.28125 L 562.804688 519.253906 C 589.390625 500.949219 615.273438 482.867188 639.734375 462.875 C 640.84375 461.972656 642.105469 461.011719 643.421875 460.011719 C 647.917969 456.585938 653.511719 452.328125 655.417969 447.957031 C 656.871094 444.625 656.269531 439.640625 655.734375 435.226562 C 655.609375 434.171875 655.488281 433.160156 655.390625 432.199219 C 650.238281 378.535156 639.242188 320.6875 622.734375 260.269531 C 622.308594 258.691406 621.910156 256.953125 621.484375 255.101562 C 618.320312 241.238281 615.523438 234.894531 608.226562 236.359375 C 599.34375 238.128906 590.335938 242.992188 581.628906 247.691406 C 579.53125 248.828125 577.515625 249.9375 575.460938 250.980469 L 570.785156 253.390625 C 561.859375 258.007812 556.9375 260.542969 546.804688 266.339844 L 539.746094 270.53125 L 539.566406 270.640625 L 502 289.917969 C 476.484375 303.015625 421.410156 296.5625 398.144531 286 L 364.730469 270.804688 L 364.429688 270.679688 C 347.25 262.308594 331.714844 255.214844 316.9375 249.007812 C 315.152344 248.265625 313.414062 247.511719 311.683594 246.757812 C 301.9375 242.554688 293.492188 238.910156 284.910156 238.910156 Z M 284.910156 238.910156 " fill-opacity="1" fill-rule="nonzero"/><path fill="#fefaed" d="M 572.757812 428.96875 C 560.972656 444.027344 547.773438 457.726562 533.164062 470.070312 C 503.769531 494.609375 468.121094 511.242188 445.882812 479.726562 C 419.628906 442.449219 347.085938 433.585938 288.40625 429.898438 C 270.089844 428.691406 253.058594 428.050781 239.253906 427.160156 C 181.230469 423.527344 163.121094 369.175781 201.179688 329.347656 C 213.695312 316.25 241.859375 308.796875 274.050781 304.851562 C 338.761719 296.753906 419.683594 302.109375 422.617188 302.398438 C 450.242188 347.445312 493.910156 375.011719 493.910156 375.011719 C 493.910156 375.011719 501.355469 365.285156 510.816406 349.75 C 520.144531 334.574219 528.265625 318.777344 535.179688 302.359375 C 537.675781 301.972656 600.261719 293.507812 616.261719 316.058594 C 632.5625 339.035156 598.152344 396.371094 572.757812 428.96875 Z M 572.757812 428.96875 " fill-opacity="1" fill-rule="nonzero"/><path fill="#aeae83" d="M 319.652344 522.285156 C 319.238281 522.28125 318.835938 522.207031 318.449219 522.0625 C 318.0625 521.917969 317.714844 521.707031 317.402344 521.4375 C 317.09375 521.164062 316.839844 520.847656 316.644531 520.484375 C 316.445312 520.121094 316.320312 519.734375 316.265625 519.324219 L 275.132812 219.550781 C 275.050781 219.089844 275.0625 218.632812 275.164062 218.175781 C 275.269531 217.722656 275.460938 217.304688 275.734375 216.925781 C 276.007812 216.546875 276.347656 216.238281 276.75 216 C 277.152344 215.761719 277.582031 215.609375 278.046875 215.546875 C 278.511719 215.484375 278.96875 215.515625 279.417969 215.640625 C 279.867188 215.761719 280.277344 215.972656 280.644531 216.261719 C 281.007812 216.554688 281.300781 216.90625 281.523438 217.316406 C 281.746094 217.726562 281.878906 218.167969 281.921875 218.632812 L 323.050781 518.390625 C 323.113281 518.84375 323.085938 519.285156 322.96875 519.722656 C 322.851562 520.164062 322.65625 520.5625 322.382812 520.921875 C 322.105469 521.285156 321.773438 521.578125 321.378906 521.808594 C 320.988281 522.035156 320.566406 522.179688 320.117188 522.242188 C 319.964844 522.269531 319.808594 522.28125 319.652344 522.285156 Z M 527.074219 569.976562 C 527.519531 569.890625 527.925781 569.730469 528.304688 569.484375 C 528.683594 569.238281 529 568.933594 529.253906 568.5625 C 529.511719 568.195312 529.6875 567.789062 529.785156 567.351562 C 529.882812 566.914062 529.894531 566.472656 529.816406 566.03125 L 482.40625 284.148438 C 482.332031 283.699219 482.171875 283.28125 481.933594 282.898438 C 481.691406 282.511719 481.382812 282.1875 481.011719 281.921875 C 480.640625 281.660156 480.234375 281.476562 479.792969 281.375 C 479.347656 281.273438 478.902344 281.257812 478.453125 281.332031 C 478.003906 281.410156 477.585938 281.566406 477.199219 281.808594 C 476.8125 282.050781 476.488281 282.355469 476.222656 282.726562 C 475.960938 283.097656 475.777344 283.503906 475.675781 283.949219 C 475.574219 284.390625 475.558594 284.835938 475.632812 285.285156 L 523.085938 567.167969 C 523.152344 567.566406 523.285156 567.941406 523.484375 568.292969 C 523.6875 568.644531 523.941406 568.949219 524.25 569.210938 C 524.558594 569.472656 524.902344 569.671875 525.28125 569.808594 C 525.664062 569.949219 526.054688 570.015625 526.460938 570.015625 Z M 527.074219 569.976562 " fill-opacity="1" fill-rule="nonzero"/><path fill="#b2c770" d="M 550.78125 234.484375 C 551.277344 247.453125 549.976562 260.242188 546.875 272.847656 C 544.011719 284.851562 540.195312 296.546875 535.425781 307.933594 C 528.519531 324.316406 520.414062 340.082031 511.101562 355.230469 C 506.207031 363.257812 501.863281 369.738281 498.765625 374.121094 C 498.464844 374.550781 498.128906 374.941406 497.753906 375.304688 C 497.375 375.664062 496.96875 375.984375 496.527344 376.261719 C 496.085938 376.539062 495.625 376.773438 495.136719 376.957031 C 494.652344 377.144531 494.152344 377.28125 493.636719 377.367188 C 493.125 377.457031 492.605469 377.492188 492.085938 377.472656 C 491.5625 377.457031 491.050781 377.390625 490.542969 377.273438 C 490.035156 377.152344 489.542969 376.984375 489.070312 376.769531 C 488.597656 376.550781 488.148438 376.292969 487.726562 375.984375 C 474.550781 366.492188 444.128906 342.296875 423.054688 307.933594 C 416.835938 297.941406 411.808594 287.382812 407.972656 276.257812 C 403.355469 263.039062 401.023438 249.429688 400.980469 235.429688 C 400.980469 149.25 527.597656 142.851562 547.503906 213.726562 C 549.390625 220.519531 550.484375 227.4375 550.78125 234.484375 Z M 506.90625 242.402344 C 506.90625 241.410156 506.859375 240.417969 506.757812 239.429688 C 506.660156 238.4375 506.515625 237.457031 506.320312 236.480469 C 506.125 235.507812 505.882812 234.542969 505.59375 233.59375 C 505.300781 232.644531 504.96875 231.707031 504.585938 230.789062 C 504.203125 229.871094 503.777344 228.976562 503.308594 228.097656 C 502.839844 227.222656 502.328125 226.371094 501.773438 225.546875 C 501.21875 224.71875 500.628906 223.921875 499.996094 223.15625 C 499.363281 222.386719 498.695312 221.652344 497.992188 220.949219 C 497.289062 220.25 496.550781 219.582031 495.78125 218.953125 C 495.011719 218.324219 494.214844 217.730469 493.386719 217.179688 C 492.558594 216.628906 491.707031 216.121094 490.828125 215.652344 C 489.949219 215.183594 489.050781 214.761719 488.132812 214.382812 C 487.214844 214 486.277344 213.667969 485.324219 213.378906 C 484.371094 213.09375 483.410156 212.851562 482.433594 212.660156 C 481.457031 212.46875 480.472656 212.320312 479.484375 212.226562 C 478.496094 212.128906 477.503906 212.082031 476.507812 212.082031 C 475.511719 212.082031 474.519531 212.132812 473.53125 212.230469 C 472.539062 212.332031 471.558594 212.476562 470.582031 212.671875 C 469.609375 212.867188 468.644531 213.109375 467.691406 213.398438 C 466.742188 213.6875 465.804688 214.023438 464.886719 214.40625 C 463.96875 214.785156 463.070312 215.210938 462.195312 215.683594 C 461.316406 216.152344 460.464844 216.664062 459.640625 217.214844 C 458.8125 217.769531 458.015625 218.363281 457.246094 218.992188 C 456.480469 219.625 455.742188 220.292969 455.042969 220.996094 C 454.339844 221.699219 453.671875 222.433594 453.042969 223.203125 C 452.414062 223.972656 451.820312 224.773438 451.269531 225.597656 C 450.71875 226.425781 450.207031 227.277344 449.738281 228.15625 C 449.273438 229.03125 448.847656 229.929688 448.46875 230.847656 C 448.089844 231.769531 447.757812 232.703125 447.46875 233.65625 C 447.179688 234.605469 446.941406 235.570312 446.746094 236.542969 C 446.554688 237.519531 446.410156 238.503906 446.3125 239.492188 C 446.21875 240.480469 446.167969 241.472656 446.171875 242.464844 C 446.171875 243.460938 446.222656 244.453125 446.320312 245.441406 C 446.417969 246.429688 446.566406 247.414062 446.761719 248.386719 C 446.957031 249.363281 447.199219 250.324219 447.488281 251.273438 C 447.78125 252.226562 448.113281 253.160156 448.496094 254.078125 C 448.878906 254.996094 449.304688 255.894531 449.773438 256.769531 C 450.246094 257.644531 450.757812 258.496094 451.308594 259.320312 C 451.863281 260.148438 452.457031 260.945312 453.089844 261.710938 C 453.722656 262.480469 454.390625 263.214844 455.09375 263.917969 C 455.796875 264.617188 456.535156 265.285156 457.304688 265.914062 C 458.074219 266.542969 458.871094 267.132812 459.699219 267.683594 C 460.527344 268.234375 461.382812 268.746094 462.257812 269.210938 C 463.136719 269.679688 464.035156 270.101562 464.953125 270.484375 C 465.875 270.863281 466.808594 271.195312 467.761719 271.480469 C 468.714844 271.769531 469.679688 272.007812 470.65625 272.203125 C 471.628906 272.394531 472.613281 272.539062 473.601562 272.636719 C 474.59375 272.730469 475.585938 272.777344 476.582031 272.777344 C 477.578125 272.777344 478.570312 272.730469 479.5625 272.636719 C 480.550781 272.539062 481.535156 272.394531 482.511719 272.199219 C 483.492188 272.007812 484.457031 271.765625 485.410156 271.480469 C 486.363281 271.191406 487.296875 270.855469 488.21875 270.476562 C 489.140625 270.097656 490.039062 269.671875 490.917969 269.203125 C 491.796875 268.734375 492.648438 268.222656 493.476562 267.671875 C 494.304688 267.117188 495.105469 266.527344 495.875 265.894531 C 496.644531 265.265625 497.382812 264.597656 498.085938 263.894531 C 498.789062 263.1875 499.457031 262.453125 500.089844 261.683594 C 500.722656 260.914062 501.3125 260.117188 501.867188 259.289062 C 502.417969 258.460938 502.929688 257.605469 503.398438 256.730469 C 503.867188 255.851562 504.292969 254.953125 504.671875 254.03125 C 505.054688 253.113281 505.386719 252.175781 505.675781 251.222656 C 505.964844 250.273438 506.207031 249.308594 506.398438 248.332031 C 506.59375 247.355469 506.738281 246.371094 506.832031 245.382812 C 506.929688 244.390625 506.976562 243.398438 506.976562 242.402344 Z M 506.90625 242.402344 " fill-opacity="1" fill-rule="nonzero"/></svg>